<?xml version="1.0" standalone="no"?>
<!DOCTYPE svg PUBLIC "-//W3C//DTD SVG 20010904//EN"
 "http://www.w3.org/TR/2001/REC-SVG-20010904/DTD/svg10.dtd">
<svg version="1.0" xmlns="http://www.w3.org/2000/svg"
 width="399.000000pt" height="399.000000pt" viewBox="0 0 399.000000 399.000000"
 preserveAspectRatio="xMidYMid meet">
<metadata>
Created by potrace 1.14, written by Peter Selinger 2001-2017
</metadata>
<g transform="translate(0.000000,399.000000) scale(0.100000,-0.100000)"
fill="#000000" stroke="none">
<path d="M0 1995 l0 -1995 1995 0 1995 0 0 1995 0 1995 -1995 0 -1995 0 0
-1995z m982 1663 c48 -14 126 -82 153 -132 l20 -36 205 0 c113 0 336 -3 496
-7 l292 -6 16 35 c24 49 79 102 135 129 71 35 170 33 238 -5 58 -32 92 -65
120 -116 l20 -35 130 -3 130 -3 13 30 c7 17 34 50 60 75 150 140 406 72 461
-122 29 -104 -15 -368 -96 -573 -122 -308 -346 -594 -641 -815 -64 -48 -112
-90 -107 -93 4 -4 44 -34 88 -66 187 -140 412 -394 529 -600 179 -315 267
-734 184 -876 -53 -90 -138 -141 -238 -143 -112 -2 -201 47 -256 140 l-26 44
-267 0 c-147 0 -369 3 -493 7 l-226 6 -27 -44 c-49 -79 -105 -119 -192 -138
-117 -24 -240 32 -294 134 l-24 45 -126 0 -126 0 -30 -49 c-32 -51 -94 -100
-152 -119 -19 -7 -62 -12 -97 -12 -120 0 -232 84 -264 198 -26 96 0 294 65
489 122 366 379 705 718 947 37 26 67 51 67 55 0 4 -13 14 -28 23 -41 25 -146
110 -241 196 -332 301 -560 766 -565 1147 -1 97 2 115 22 155 70 134 200 184
354 138z"/>
<path d="M818 3459 l-31 -30 6 -92 c16 -229 121 -504 274 -721 78 -110 286
-317 408 -407 153 -112 136 -109 245 -54 50 25 90 48 89 50 -2 2 -47 31 -99
65 -262 172 -444 358 -572 585 -81 144 -145 335 -154 465 -10 132 -33 170
-102 170 -24 0 -42 -9 -64 -31z"/>
<path d="M2368 3463 c-28 -18 -48 -52 -48 -83 0 -26 45 -77 74 -82 60 -12 120
48 108 108 -6 30 -56 74 -85 74 -12 0 -34 -8 -49 -17z"/>
<path d="M3153 3461 c-36 -22 -37 -26 -54 -156 -59 -459 -406 -887 -924 -1140
-71 -35 -202 -97 -289 -139 -284 -136 -460 -258 -646 -445 -238 -240 -392
-522 -451 -823 -23 -119 -24 -196 -4 -225 20 -28 75 -46 106 -34 44 16 55 42
67 146 22 196 95 388 215 567 199 298 490 525 897 700 470 201 822 488 1025
833 119 202 192 427 197 608 1 60 -1 71 -23 92 -34 35 -77 40 -116 16z"/>
<path d="M1180 3282 c0 -38 44 -172 84 -258 l43 -91 69 -6 c38 -4 110 -7 161
-7 l91 0 26 44 c57 98 160 153 266 143 95 -8 179 -62 221 -141 l24 -46 302 0
303 0 36 72 c54 106 110 278 96 292 -3 4 -56 6 -117 6 l-112 0 -18 -41 c-21
-46 -82 -101 -141 -125 -118 -49 -272 5 -339 121 -21 35 -32 44 -63 49 -20 3
-238 6 -484 6 -422 0 -448 -1 -448 -18z"/>
<path d="M1837 2892 c-47 -49 -33 -122 28 -148 41 -17 73 -7 104 32 30 38 27
79 -8 115 -40 39 -87 40 -124 1z"/>
<path d="M1460 2731 c0 -14 181 -182 260 -242 85 -63 203 -137 271 -170 l47
-22 88 48 c101 54 213 128 294 192 67 54 190 173 190 185 0 4 -100 8 -223 8
l-223 0 -23 -40 c-29 -52 -93 -105 -149 -124 -124 -43 -268 7 -330 113 -14 25
-31 49 -37 53 -14 11 -165 10 -165 -1z"/>
<path d="M2345 1836 c-44 -23 -81 -45 -81 -51 0 -5 23 -24 52 -41 99 -60 243
-174 337 -266 250 -248 395 -535 427 -843 5 -53 15 -105 20 -115 25 -48 106
-55 147 -14 25 25 26 28 19 117 -16 236 -109 490 -260 716 -79 117 -154 203
-266 306 -94 87 -289 236 -305 233 -5 -1 -46 -20 -90 -42z"/>
<path d="M1935 1642 c-100 -53 -193 -114 -270 -175 -62 -50 -225 -209 -225
-219 0 -5 105 -8 233 -8 l233 0 22 45 c25 52 96 108 159 126 23 6 71 10 107 7
78 -5 145 -42 193 -108 59 -82 55 -80 143 -80 44 0 80 3 80 6 0 30 -202 219
-324 303 -69 47 -245 151 -256 151 -3 0 -46 -22 -95 -48z"/>
<path d="M2105 1205 c-17 -16 -25 -35 -25 -59 0 -49 8 -65 42 -82 66 -34 133
9 131 84 -2 74 -96 110 -148 57z"/>
<path d="M1252 967 c-37 -75 -92 -239 -92 -273 0 -11 23 -14 114 -14 l114 0
12 30 c35 84 145 150 250 150 107 0 189 -48 244 -143 l28 -47 479 0 c463 0
479 1 479 19 0 36 -51 196 -87 274 l-36 77 -162 0 -162 0 -30 -47 c-32 -52
-89 -97 -150 -119 -118 -42 -267 17 -328 128 l-26 48 -304 0 -303 0 -40 -83z"/>
<path d="M1585 644 c-35 -38 -34 -87 4 -125 40 -40 82 -39 123 1 27 27 30 36
25 73 -7 52 -36 77 -89 77 -29 0 -45 -6 -63 -26z"/>
</g>
</svg>
